<svg width="20px" height="20px" viewBox="0 0 20 20" version="1.1" xmlns="http://www.w3.org/2000/svg" xmlns:xlink="http://www.w3.org/1999/xlink">
  <g stroke="none" stroke-width="1" fill="none" fill-rule="evenodd">
    <rect x="0" y="0" width="20" height="20"></rect>
    <path d="M5.32999992,7.24616775 L4.10793916,8.25159603 C3.67747782,8.60575027 3.33333333,9.3370007 3.33333333,9.88977464 L3.33333333,15.6657809 C3.33333333,16.2262147 3.78201881,16.6666667 4.3355004,16.6666667 L15.6644996,16.6666667 C16.2230428,16.6666667 16.6666667,16.2185549 16.6666667,15.6657809 L16.6666667,9.88977464 C16.6666667,9.32934086 16.3229215,8.59869524 15.8988904,8.24072323 L10.8536812,3.98149899 C10.4212932,3.61647195 9.73910212,3.61865907 9.31129913,3.9706262 L7.55222215,5.41787481 L7.55222215,3.33333333 L5.32999992,3.33333333 L5.32999992,7.24616775 Z M8,11.1111111 L12.3333333,11.1111111 L12.3333333,16.6666667 L8,16.6666667 L8,11.1111111 Z" fill="#BFC8D7"></path>
  </g>
</svg>