<svg width="16" height="16" viewBox="0 0 16 16" xmlns="http://www.w3.org/2000/svg">
  <path d="M1 1.99c0-.546.451-.99.99-.99h4.02c.546 0 .99.451.99.99v4.02c0 .546-.451.99-.99.99H1.99A.996.996 0 0 1 1 6.01V1.99zm0 8c0-.546.451-.99.99-.99h4.02c.546 0 .99.451.99.99v4.02c0 .546-.451.99-.99.99H1.99a.996.996 0 0 1-.99-.99V9.99zm8-8c0-.546.451-.99.99-.99h4.02c.546 0 .99.451.99.99v4.02c0 .546-.451.99-.99.99H9.99A.996.996 0 0 1 9 6.01V1.99zm0 8c0-.546.451-.99.99-.99h4.02c.546 0 .99.451.99.99v4.02c0 .546-.451.99-.99.99H9.99a.996.996 0 0 1-.99-.99V9.99z" fill-rule="evenodd"/>
</svg>