<svg width="20" height="20" viewBox="0 0 20 20">
    <path d="M10 8.133a2.89 2.89 0 0 1 2.12.88 2.89 2.89 0 0 1 .88 2.12 2.89 2.89 0 0 1-.88 2.12 2.89 2.89 0 0 1-2.12.88 2.89 2.89 0 0 1-2.12-.88 2.89 2.89 0 0 1-.88-2.12c0-.826.293-1.533.88-2.12a2.89 2.89 0 0 1 2.12-.88zM17.333 3.8c.736 0 1.365.26 1.886.781.52.521.781 1.15.781 1.886V15.8a2.57 2.57 0 0 1-.781 1.885 2.57 2.57 0 0 1-1.886.782H2.667a2.57 2.57 0 0 1-1.886-.782A2.57 2.57 0 0 1 0 15.8V6.467C0 5.73.26 5.102.781 4.58A2.57 2.57 0 0 1 2.667 3.8H5l.531-1.417c.132-.34.374-.633.724-.88.35-.246.71-.37 1.078-.37h5.334c.368 0 .727.124 1.078.37.35.247.592.54.724.88L15 3.8h2.333zM10 15.8c1.285 0 2.384-.457 3.297-1.37.913-.913 1.37-2.012 1.37-3.297 0-1.284-.457-2.383-1.37-3.297-.913-.913-2.012-1.37-3.297-1.37-1.285 0-2.384.457-3.297 1.37-.913.914-1.37 2.013-1.37 3.297 0 1.285.457 2.384 1.37 3.297.913.913 2.012 1.37 3.297 1.37z" fill="#FFF" fill-rule="evenodd"/>
</svg>
