<svg width="16" height="16" viewBox="0 0 16 16" xmlns="http://www.w3.org/2000/svg"><path d="M12.643 6.143v7.359a.998.998 0 0 1-.994.998H4.351a.99.99 0 0 1-.994-.998v-7.36H2.5a1 1 0 0 1-1-1.004v-.774c0-.556.447-1.006.999-1.006h2.718a1.038 1.038 0 0 1-.003-.077v-.774c0-.556.456-1.006.996-1.006h3.58a1 1 0 0 1 .996 1.006v.774a.972.972 0 0 1-.003.077H13.5a1 1 0 0 1 .999 1.006v.774c0 .556-.447 1.006-.999 1.006h-.858zm-7.429.931c0-.514.412-.931.929-.931.513 0 .928.406.928.931v4.638a.928.928 0 0 1-.928.93.923.923 0 0 1-.929-.93V7.074zm3.715 0c0-.514.412-.931.928-.931.513 0 .929.406.929.931v4.638a.928.928 0 0 1-.929.93.923.923 0 0 1-.928-.93V7.074z" fill-rule="evenodd"/></svg>