<svg width="16px" height="16px" viewBox="0 0 16 16" version="1.1" xmlns="http://www.w3.org/2000/svg" xmlns:xlink="http://www.w3.org/1999/xlink">
  <g stroke="none" stroke-width="1" fill="none" fill-rule="evenodd">
    <g transform="translate(-2.000000, -2.000000)">
      <rect x="0" y="0" width="20" height="20"></rect>
      <path fill="#BFC8D7" d="M2,14.3214286 L2,5.67857143 C2,5.6087296 2.01169579,5.52579337 2.03508772,5.42976274 L8.64561448,11.6107151 C9.01520662,11.9555578 9.4690039,12.1279758 10.0070171,12.1279758 C10.535676,12.1279758 10.9847934,11.9555578 11.3543855,11.6107151 L17.9789469,5.42976274 C17.9929829,5.51706377 18,5.6 18,5.67857143 L18,14.3214286 C18,14.6444461 17.8771937,14.9216258 17.6315792,15.1529763 C17.3859629,15.3843265 17.090061,15.5 16.7438592,15.5 L3.27017535,15.5 C2.92397496,15.5 2.62573227,15.3843265 2.37543864,15.1529763 C2.12514494,14.9216258 2,14.6444461 2,14.3214286 L2,14.3214286 Z M2.90526307,4.55238095 C3.02690115,4.51746088 3.14853744,4.5 3.27017535,4.5 L16.7438592,4.5 C16.8561417,4.5 16.9730987,4.51746088 17.0947373,4.55238095 L10.4350868,10.7595238 C10.3181281,10.8686505 10.1731009,10.9232139 10,10.9232139 C9.82689909,10.9232139 9.68187194,10.8686505 9.56491318,10.7595238 L2.90526307,4.55238095 Z" fill-rule="evenodd"></path>
    </g>
  </g>
</svg>
