<svg width="20" height="20" viewBox="0 0 20 20" xmlns="http://www.w3.org/2000/svg"><title>globe</title><path d="M14.509 4.196c.178.387.223.61.134.67-.06.06-.156.074-.29.045-.134-.03-.231-.12-.29-.268a.843.843 0 0 1-.045-.268l-.045-.134h-.134c-.178.06-.268 0-.268-.178.03-.06.105-.12.224-.18 0-.029-.015-.059-.045-.088-.03-.179.015-.253.134-.224.238.06.446.268.625.625zM10 0c2.768 0 5.126.975 7.076 2.924C19.026 4.874 20 7.232 20 10s-.975 5.126-2.924 7.076C15.126 19.026 12.768 20 10 20s-5.126-.975-7.076-2.924C.974 15.126 0 12.768 0 10s.975-5.126 2.924-7.076C4.874.974 7.232 0 10 0zM6.295 17.723l.357.179c.178.06.327.104.446.134a8.662 8.662 0 0 0 1.92.446c1.34.149 2.574.03 3.705-.357.804-.268 1.444-.565 1.92-.893.09-.06.178-.238.268-.536.089-.297.149-.476.178-.535.09-.179.142-.514.157-1.005.014-.49.14-.855.379-1.094.149-.178.238-.342.268-.49.03-.15.022-.32-.022-.514a2.316 2.316 0 0 1-.067-.513c0-.09.044-.283.133-.58.09-.298.105-.536.045-.715 0-.06-.06-.067-.178-.022-.12.044-.194.037-.224-.023-.06-.089-.17-.141-.334-.156a2.214 2.214 0 0 0-.536.022 3.25 3.25 0 0 1-.38.045c-.357-.06-.848-.402-1.473-1.027-.09-.089-.074-.476.045-1.16.03-.09.06-.298.09-.625.029-.328.096-.573.2-.737.104-.164.29-.275.558-.335.09-.03.171-.111.246-.245.074-.134.14-.216.2-.246.09-.03.201-.06.335-.09.134-.029.246-.059.335-.088.149-.03.35-.023.603.022.253.044.439.067.558.067.208 0 .535.163.982.49.09.09.186.142.29.157.104.015.223.022.357.022.134 0 .246.015.335.045.12-.03.09-.149-.09-.357a.635.635 0 0 0-.356-.09c-.268-.059-.566-.275-.893-.647-.328-.372-.566-.602-.715-.692-.208-.119-.372-.119-.49 0l.044.536c0 .03-.193.104-.58.223-.268.06-.521-.089-.76-.446-.148-.268-.118-.447.09-.536h.134a.872.872 0 0 1 .179-.067 3.14 3.14 0 0 0 .223-.067c.09-.03.163-.06.223-.09.06-.029.119-.066.179-.11a.443.443 0 0 0 .133-.157.19.19 0 0 0 0-.178c-.03-.06-.044-.164-.044-.313-.03-.179-.09-.283-.179-.313a.817.817 0 0 1-.335-.178.817.817 0 0 0-.334-.179c-.15-.03-.224-.238-.224-.625 0-.208.075-.312.224-.312h.178a8.512 8.512 0 0 0-2.544-1.072c-.12.358-.239.536-.358.536-.208.06-.342.104-.401.134-.06.06-.134.156-.224.29-.089.134-.163.23-.223.29-.06.06-.126.112-.2.157-.075.044-.15.03-.224-.045a1.514 1.514 0 0 1-.245-.38c-.06-.178-.053-.401.022-.67.074-.267.097-.46.067-.58h-.402c.208.417.09.7-.357.849a.785.785 0 0 1-.38-.112.512.512 0 0 0-.379-.067.677.677 0 0 1-.246-.067c-.104-.044-.186-.052-.245-.022-.387.179-.595.357-.625.536-.06.268-.015.424.134.468.149.045.312-.022.49-.2.418-.417.79-.506 1.117-.268.149.119.223.327.223.625 0 .119-.007.223-.022.312a.89.89 0 0 1-.112.29c-.06.104-.149.142-.268.112-.03 0-.081-.022-.156-.067a2.776 2.776 0 0 0-.156-.09c-.03-.014-.09-.007-.179.023-.06.06-.49.193-1.294.402a3.1 3.1 0 0 0-.648.2c-.253.105-.409.172-.468.202-.328.119-.506.297-.536.535 0 .417-.045.64-.134.67-.06.03-.126-.037-.2-.201a2.254 2.254 0 0 0-.313-.491c-.134-.164-.29-.23-.47-.2-.297.029-.58.17-.847.423-.268.253-.357.528-.268.826.03.06.141.112.335.156.193.045.312.09.357.134.044.045-.037.157-.246.335a.36.36 0 0 0-.022.223c.015.09.037.216.067.38.03.163.045.26.045.29.03.208.148.372.357.491.208.119.401.104.58-.045.149-.148.357-.178.625-.089 1.16.625 1.83 1.027 2.009 1.205.06.06.171.268.335.625.163.358.305.566.424.625.03.03.2.105.513.224.313.119.529.253.648.401a.507.507 0 0 1 .022.558 1.5 1.5 0 0 1-.38.47c-.06.029-.178.237-.357.624-.178.387-.297.61-.357.67-.06.09-.297.193-.714.312-.03 0-.075.038-.134.112-.06.074-.112.149-.156.223a.864.864 0 0 1-.112.156c-.06.06-.164.194-.312.402a1.579 1.579 0 0 1-.447.447c-.684.476-.952 1.13-.803 1.964.089.357.253.595.49.714zm-1.83-1.205l.089.09c.208.178.55.416 1.026.713-.744-.744-1.056-1.904-.937-3.482l.134-1.071c.03-.06.007-.142-.067-.246-.075-.104-.112-.186-.112-.245 0-.209-.06-.342-.178-.402l-.179-.179c-.268-.267-.446-.52-.536-.758-.238-.506-.089-1.146.447-1.92.149-.238.119-.521-.09-.848-.208-.328-.327-.521-.357-.58 0-.09-.052-.18-.156-.269-.104-.089-.141-.178-.111-.267.03-.15-.03-.239-.18-.268a2.184 2.184 0 0 0-.222-.134c-.209-.12-.298-.32-.268-.603.03-.283.015-.469-.045-.558a8.511 8.511 0 0 0-1.227 5.134c.133 1.845.78 3.467 1.942 4.866l.044.045v.044h.045c.178.238.312.402.402.491.06.06.14.134.245.224.104.089.171.148.201.178l.09.045z" fill="#BFC8D7" fill-rule="evenodd"/></svg>