<?xml version="1.0" encoding="UTF-8"?>
<!DOCTYPE svg PUBLIC "-//W3C//DTD SVG 1.1//EN" "http://www.w3.org/Graphics/SVG/1.1/DTD/svg11.dtd">
<svg version="1.1" xmlns="http://www.w3.org/2000/svg" xmlns:xlink="http://www.w3.org/1999/xlink" x="0" y="0" width="30" height="30" viewBox="0, 0, 30, 30">
  <g id="Layer_1">
    <path d="M2.25,12.625 L27.75,12.625 C28.993,12.625 30,13.632 30,14.875 L30,14.875 C30,16.118 28.993,17.125 27.75,17.125 L2.25,17.125 C1.007,17.125 -0,16.118 0,14.875 L0,14.875 C0,13.632 1.007,12.625 2.25,12.625 z" fill="#F4F6FA"/>
    <path d="M2.25,3.625 L27.75,3.625 C28.993,3.625 30,4.632 30,5.875 L30,5.875 C30,7.118 28.993,8.125 27.75,8.125 L2.25,8.125 C1.007,8.125 -0,7.118 0,5.875 L0,5.875 C0,4.632 1.007,3.625 2.25,3.625 z" fill="#F4F6FA"/>
    <path d="M2.25,21.625 L27.75,21.625 C28.993,21.625 30,22.632 30,23.875 L30,23.875 C30,25.118 28.993,26.125 27.75,26.125 L2.25,26.125 C1.007,26.125 -0,25.118 0,23.875 L0,23.875 C0,22.632 1.007,21.625 2.25,21.625 z" fill="#F4F6FA"/>
  </g>
</svg>
