<?xml version="1.0" encoding="UTF-8"?>
<svg width="19px" height="19px" viewBox="0 0 19 19" version="1.1" xmlns="http://www.w3.org/2000/svg" xmlns:xlink="http://www.w3.org/1999/xlink">
    <g stroke="none" stroke-width="1" fill-rule="evenodd">
        <path d="M3.5,7 C2.11928813,7 1,5.88071187 1,4.5 C1,3.11928813 2.11928813,2 3.5,2 C4.88071187,2 6,3.11928813 6,4.5 C6,5.88071187 4.88071187,7 3.5,7 Z M3.5,13 C2.11928813,13 1,11.8807119 1,10.5 C1,9.11928813 2.11928813,8 3.5,8 C4.88071187,8 6,9.11928813 6,10.5 C6,11.8807119 4.88071187,13 3.5,13 Z M3.5,19 C2.11928813,19 1,17.8807119 1,16.5 C1,15.1192881 2.11928813,14 3.5,14 C4.88071187,14 6,15.1192881 6,16.5 C6,17.8807119 4.88071187,19 3.5,19 Z M7,4.5 C7,3.67157288 7.66254437,3 8.4912653,3 L18.5087347,3 C19.3323378,3 20,3.66579723 20,4.5 C20,5.32842712 19.3374556,6 18.5087347,6 L8.4912653,6 C7.66766222,6 7,5.33420277 7,4.5 Z M7,10.5 C7,9.67157288 7.66254437,9 8.4912653,9 L18.5087347,9 C19.3323378,9 20,9.66579723 20,10.5 C20,11.3284271 19.3374556,12 18.5087347,12 L8.4912653,12 C7.66766222,12 7,11.3342028 7,10.5 Z M7,16.5 C7,15.6715729 7.66254437,15 8.4912653,15 L18.5087347,15 C19.3323378,15 20,15.6657972 20,16.5 C20,17.3284271 19.3374556,18 18.5087347,18 L8.4912653,18 C7.66766222,18 7,17.3342028 7,16.5 Z" id="Combined-Shape"></path>
    </g>
</svg>
