<?xml version="1.0" encoding="UTF-8"?>
<!DOCTYPE svg PUBLIC "-//W3C//DTD SVG 1.1//EN" "http://www.w3.org/Graphics/SVG/1.1/DTD/svg11.dtd">
<svg version="1.1" xmlns="http://www.w3.org/2000/svg" xmlns:xlink="http://www.w3.org/1999/xlink" x="0" y="0" width="20" height="20" viewBox="0, 0, 20, 20">
  <g id="Layer_2">
    <g>
      <path d="M4.973,6.972 L15.027,6.972 C15.525,6.972 15.928,7.376 15.928,7.873 L15.928,17.224 C15.928,17.722 15.525,18.125 15.027,18.125 L4.973,18.125 C4.475,18.125 4.072,17.722 4.072,17.224 L4.072,7.873 C4.072,7.376 4.475,6.972 4.973,6.972 z" fill="#BFC8D7"/>
      <path d="M10,9.323 C8.233,9.323 6.799,7.89 6.799,6.122 C6.799,4.355 8.233,2.922 10,2.922 C11.768,2.922 13.201,4.355 13.201,6.122 C13.201,7.89 11.768,9.323 10,9.323 z" fill-opacity="0" stroke="#BFC8D7" stroke-width="2"/>
      <path d="M10,14.311 C9.027,14.311 8.238,13.522 8.238,12.549 C8.238,11.575 9.027,10.786 10,10.786 C10.973,10.786 11.762,11.575 11.762,12.549 C11.762,13.522 10.973,14.311 10,14.311 z" fill="#FFFFFF"/>
    </g>
  </g>
</svg>
