<?xml version="1.0" encoding="UTF-8" standalone="no"?>
<svg width="250px" height="26px" viewBox="0 0 250 26" version="1.1" xmlns="http://www.w3.org/2000/svg" xmlns:xlink="http://www.w3.org/1999/xlink" xmlns:sketch="http://www.bohemiancoding.com/sketch/ns">
    <!-- Generator: Sketch 3.3.3 (12081) - http://www.bohemiancoding.com/sketch -->
    <title>logo</title>
    <desc>Created with Sketch.</desc>
    <defs></defs>
    <g id="Page-1" stroke="none" stroke-width="1" fill="none" fill-rule="evenodd" sketch:type="MSPage">
        <g id="logo" sketch:type="MSLayerGroup">
            <g id="Page-1" sketch:type="MSShapeGroup">
                <g id="Imported-Layers">
                    <path d="M22.8190104,0.373697917 L27.2070312,0.373697917 L30.2044271,24.9596354 L24.9596354,24.9596354 L23.2447917,10.2200521 L17.5,22.1432292 L13.46875,22.1432292 L7.68619792,10.2200521 L5.94010417,24.9596354 L0.694010417,24.9596354 L3.7265625,0.373697917 L8.04427083,0.373697917 L15.4661458,16.21875 L22.8190104,0.373697917" id="Fill-1" fill="#394550"></path>
                    <path d="M71.8984375,24.9596354 L71.8984375,0.373697917 L81.5338542,0.373697917 C88.5989583,0.373697917 92.6302083,5.72786458 92.6302083,12.7200521 C92.6302083,19.6796875 88.5989583,24.9596354 81.5338542,24.9596354 L71.8984375,24.9596354 L71.8984375,24.9596354 Z M77.1067708,20.2122396 L81.5338542,20.2122396 C85.4583333,20.2122396 87.421875,16.7513021 87.421875,12.7200521 C87.421875,8.65234375 85.4583333,5.11979167 81.5338542,5.11979167 L77.1067708,5.11979167 L77.1067708,20.2122396 L77.1067708,20.2122396 Z" id="Fill-2" fill="#394550"></path>
                    <path d="M105.147135,0.373697917 L110.355469,0.373697917 L110.355469,24.9596354 L105.147135,24.9596354 L105.147135,0.373697917 L105.147135,0.373697917 Z" id="Fill-3" fill="#394550"></path>
                    <path d="M129.708333,19.1432292 L127.529948,24.9596354 L121.963542,24.9596354 L131.10026,0.373697917 L136.77474,0.373697917 L145.873698,24.9596354 L140.378906,24.9596354 L138.200521,19.1432292 L129.708333,19.1432292 L129.708333,19.1432292 Z M136.523438,14.6132813 L133.917969,6.04817708 L131.419271,14.6132813 L136.523438,14.6132813 L136.523438,14.6132813 Z" id="Fill-4" fill="#394550"></path>
                    <path d="M157.533854,0.373697917 L162.779948,0.373697917 L162.779948,20.3580729 L171.986979,20.3580729 L171.986979,24.9596354 L157.533854,24.9596354 L157.533854,0.373697917" id="Fill-5" fill="#394550"></path>
                    <path d="M184.15625,0.373697917 L189.364583,0.373697917 L189.364583,24.9596354 L184.15625,24.9596354 L184.15625,0.373697917 L184.15625,0.373697917 Z" id="Fill-6" fill="#394550"></path>
                    <path d="M208.0625,17.75 C208.132812,19.3229167 209.382812,20.7122396 211.738281,20.7122396 C213.842448,20.7122396 215.307292,19.7135417 215.342448,18.1080729 C215.377604,17.0013021 214.877604,16.0403646 212.380208,15.3242188 L209.417969,14.5052083 C203.99349,12.828125 203.066406,9.64973958 203.066406,7.4375 C203.066406,3.04817708 206.8125,0.0859375 211.523438,0.0859375 C216.269531,0.0859375 219.835938,2.90625 219.835938,7.61588542 L214.628906,7.61588542 C214.628906,5.9765625 213.522135,4.83333333 211.453125,4.83333333 C209.632812,4.83333333 208.276042,5.83072917 208.276042,7.29557292 C208.276042,7.93619792 208.52474,9.1171875 210.915365,9.79557292 L213.842448,10.7239583 C219.802083,12.4335938 220.658854,15.7903646 220.58724,18.1445312 C220.515625,23.0325521 216.091146,25.3541667 211.738281,25.3541667 C206.384115,25.3541667 202.816406,22.1757812 202.816406,17.75 L208.0625,17.75" id="Fill-7" fill="#394550"></path>
                    <path d="M231.21224,0.373697917 L249.769531,0.373697917 L249.769531,5.08203125 L243.132812,5.08203125 L243.132812,24.9596354 L237.85026,24.9596354 L237.85026,5.08203125 L231.21224,5.08203125 L231.21224,0.373697917" id="Fill-8" fill="#394550"></path>
                    <path d="M42.0065104,0.333333333 L59.0885417,0.333333333 L59.0885417,4.97916667 L42.0065104,4.97916667 L42.0065104,0.333333333 L42.0065104,0.333333333 Z" id="Fill-9" fill="#2B7CDD"></path>
                    <path d="M42.0065104,10.3450521 L55.3372396,10.3450521 L55.3372396,14.9908854 L42.0065104,14.9908854 L42.0065104,10.3450521 L42.0065104,10.3450521 Z" id="Fill-10" fill="#2B7CDD"></path>
                    <path d="M42.0065104,20.3554688 L59.0885417,20.3554688 L59.0885417,25.0013021 L42.0065104,25.0013021 L42.0065104,20.3554688 L42.0065104,20.3554688 Z" id="Fill-11" fill="#2B7CDD"></path>
                </g>
            </g>
        </g>
    </g>
</svg>