<svg width="20" height="20" viewBox="0 0 20 20" xmlns="http://www.w3.org/2000/svg"><title>Medium</title><g fill="none" fill-rule="evenodd"><path d="M0 10C0 4.477 4.477 0 10 0s10 4.477 10 10-4.477 10-10 10S0 15.523 0 10z" fill="#FFF"/><path d="M11.759 5.677c-.05-.026-.092 0-.092.057v7.03l3.056 1.54c.152.076.277-.001.277-.173V7.364a.09.09 0 0 0-.049-.08L11.76 5.677" fill="#32FC8D"/><path d="M8.333 11.011l3.295-5.292a.116.116 0 0 1 .147-.041l3.183 1.573c.04.02.054.068.03.106l-3.305 5.31-3.35-1.656" fill="#0BE370"/><path d="M5.216 5.712c-.208-.102-.278-.026-.156.169l3.192 5.106 3.415 1.68-3.392-5.425a.147.147 0 0 0-.06-.054L5.216 5.712" fill="#14C767"/><path d="M8.333 14.13c0 .173-.124.25-.277.174L5.185 12.85A.371.371 0 0 1 5 12.55V5.802c0-.115.083-.167.185-.116l3.107 1.572a.075.075 0 0 1 .041.067v6.805" fill="#00AB6C"/></g></svg>