<svg width="18" height="18" viewBox="0 0 18 18" xmlns="http://www.w3.org/2000/svg">
  <path d="M15.752.037a2.71 2.71 0 0 0-2.2.604 2.697 2.697 0 0 0-.953 2.058c0 .997.557 1.842 1.5 2.295V6c0 .827-.673 1.5-1.5 1.5h-2.4V4.993c.9-.44 1.469-1.298 1.5-2.284.042-1.329-.903-2.453-2.246-2.672A2.71 2.71 0 0 0 7.252.64 2.696 2.696 0 0 0 6.3 2.7c0 .997.556 1.842 1.5 2.295V7.5H5.4c-.827 0-1.5-.673-1.5-1.5V4.993c.9-.44 1.468-1.298 1.5-2.284C5.442 1.38 4.497.256 3.153.037a2.71 2.71 0 0 0-2.2.604A2.697 2.697 0 0 0 0 2.7c0 .997.556 1.842 1.5 2.295V6c0 2.15 1.75 3.9 3.9 3.9h2.1v2.7H6.272a.896.896 0 0 0-.801.49.896.896 0 0 0 .071.936l2.527 3.498c.218.302.557.475.93.475.372 0 .71-.173.929-.475l2.526-3.498a.896.896 0 0 0 .072-.936.896.896 0 0 0-.801-.49h-1.527v-2.7h2.4c2.15 0 3.9-1.75 3.9-3.9V4.993c.9-.44 1.468-1.298 1.5-2.284.042-1.329-.903-2.453-2.247-2.672z" fill-rule="nonzero" fill="#437AF4"/>
</svg>
