<svg width="20px" height="20px" viewBox="0 0 20 20" version="1.1" xmlns="http://www.w3.org/2000/svg" xmlns:xlink="http://www.w3.org/1999/xlink">
  <g stroke="none" stroke-width="1" fill="none" fill-rule="evenodd">
    <rect x="0" y="0" width="20" height="20"></rect>
    <path d="M13.9852314,14.9021277 L13.9852314,3.45106383 L6.61273384,3.45106383 L6.61273384,14.9021277 L13.9852314,14.9021277 Z M10.2989826,18.1574468 C10.6317698,18.1574468 10.9197567,18.0361714 11.1629459,17.793617 C11.4061376,17.5510627 11.5277322,17.2638313 11.5277322,16.9319149 C11.5277322,16.5999984 11.4061376,16.3127664 11.1629459,16.070214 C10.9197567,15.8276592 10.6317698,15.706383 10.2989826,15.706383 C9.96619544,15.706383 9.67820848,15.8276592 9.43501928,16.070214 C9.19182762,16.3127664 9.07023302,16.5999984 9.07023302,16.9319149 C9.07023302,17.2638313 9.19182762,17.5510627 9.43501928,17.793617 C9.67820848,18.0361714 9.96619544,18.1574468 10.2989826,18.1574468 L10.2989826,18.1574468 Z M13.6012471,1 C14.1644273,1 14.6444015,1.2042545 15.0411893,1.61276596 C15.4379746,2.02127741 15.6363636,2.50637971 15.6363636,3.06808511 L15.6363636,16.9319149 C15.6363636,17.4936198 15.4379746,17.9787214 15.0411893,18.387234 C14.6444015,18.7957467 14.1644273,19 13.6012471,19 L7.03511651,19 C6.47193683,19 5.99196119,18.7957467 5.59517558,18.387234 C5.19838988,17.9787214 5,17.4936198 5,16.9319149 L5,3.06808511 C5,2.50637971 5.19838988,2.02127741 5.59517558,1.61276596 C5.99196119,1.2042545 6.47193683,1 7.03511651,1 L13.6012471,1 Z" fill="#BFC8D7"></path>
  </g>
</svg>
