<svg width="20px" height="20px" viewBox="0 0 20 20" version="1.1" xmlns="http://www.w3.org/2000/svg" xmlns:xlink="http://www.w3.org/1999/xlink">
  <g stroke="none" stroke-width="1" fill="none" fill-rule="evenodd">
    <rect x="0" y="0" width="20" height="20"></rect>
    <path d="M17,14.0568171 C17,14.2357963 16.966856,14.4694595 16.9005679,14.7578134 C16.8342798,15.0461661 16.7646797,15.2731998 16.691761,15.4389203 C16.5525565,15.7703614 16.148204,16.1216836 15.4786947,16.4928976 C14.8555839,16.8309676 14.2391127,17 13.6292609,17 C13.4502839,17 13.2762805,16.9883997 13.1072438,16.9651989 C12.9382094,16.941998 12.747635,16.9005685 12.5355118,16.8409091 C12.3233886,16.7812497 12.1659582,16.7331914 12.0632097,16.696733 C11.9604634,16.6602745 11.7765174,16.59233 11.511365,16.4928976 C11.2462104,16.3934653 11.0838065,16.3338069 11.024149,16.3139205 C10.3745226,16.0819117 9.79450958,15.8068197 9.28409215,15.4886364 C8.43560143,14.9649593 7.55895353,14.2507146 6.65411948,13.3458805 C5.74928544,12.4410465 5.0350407,11.5643986 4.51136364,10.7159079 C4.19318035,10.2054904 3.91808832,9.62547739 3.68607954,8.97585095 C3.66619312,8.91619345 3.60653472,8.75378963 3.50710236,8.48863502 C3.40767,8.22348265 3.33972548,8.03953664 3.30326703,7.93679032 C3.26680858,7.83404177 3.21875031,7.67661144 3.15909091,7.4644882 C3.09943152,7.25236497 3.05800202,7.06179059 3.03480114,6.89275618 C3.01160026,6.72371953 3,6.54971607 3,6.37073911 C3,5.76088731 3.16903241,5.14441605 3.50710236,4.5213053 C3.87831635,3.85179599 4.22963857,3.44744352 4.56107971,3.30823897 C4.72680017,3.23532028 4.95383388,3.16572023 5.24218665,3.09943214 C5.53054052,3.03314405 5.76420372,3 5.94318291,3 C6.03598446,3 6.10558673,3.00994255 6.15198973,3.02982986 C6.27130697,3.06960228 6.44696975,3.32149347 6.67897808,3.78551013 C6.75189453,3.91145795 6.85132445,4.09043491 6.97727227,4.32244324 C7.1032201,4.55445157 7.21922315,4.76491326 7.32528365,4.953835 C7.43134638,5.14275673 7.53409048,5.32007438 7.63352262,5.48579461 C7.65340994,5.5123103 7.71141035,5.5951693 7.80752831,5.73437385 C7.90364627,5.87358063 7.97490564,5.99123855 8.02130641,6.0873565 C8.06770941,6.18347446 8.09090869,6.27793533 8.09090869,6.37073911 C8.09090869,6.5033153 7.99645005,6.6690333 7.80752831,6.86789758 C7.61860657,7.06676187 7.41311616,7.24905078 7.19105037,7.41477325 C6.96898682,7.58049348 6.7634964,7.75615403 6.57457466,7.94176159 C6.38565293,8.12736691 6.29119429,8.27982819 6.29119429,8.39914765 C6.29119429,8.45880738 6.3077652,8.53338093 6.34090924,8.6228683 C6.37405329,8.7123579 6.40222606,8.78030308 6.42542534,8.82670386 C6.44862684,8.87310686 6.49502761,8.95265168 6.56462989,9.06534055 C6.63423439,9.17802942 6.67234971,9.24100333 6.67897808,9.25426006 C7.18276714,10.1624105 7.75946599,10.9412834 8.4090902,11.5909098 C9.05871664,12.240534 9.83758949,12.8172329 10.7457399,13.3210219 C10.7589967,13.3276503 10.8219706,13.3657656 10.9346595,13.4353701 C11.0473483,13.5049724 11.1268931,13.5513732 11.1732961,13.5745747 C11.2196969,13.5977739 11.2876421,13.6259467 11.3771317,13.6590908 C11.4666191,13.6922348 11.5411926,13.7088057 11.6008523,13.7088057 C11.7201718,13.7088057 11.8726331,13.6143471 12.0582384,13.4254253 C12.243846,13.2365036 12.4195065,13.0310132 12.5852268,12.8089496 C12.7509492,12.5868838 12.9332381,12.3813934 13.1321024,12.1924717 C13.3309667,12.00355 13.4966847,11.9090913 13.6292609,11.9090913 C13.7220647,11.9090913 13.8165255,11.9322906 13.9126435,11.9786936 C14.0087615,12.0250944 14.1264194,12.0963537 14.2656261,12.1924717 C14.4048307,12.2885896 14.4876897,12.3465901 14.5142054,12.3664774 C14.6799256,12.4659095 14.8572433,12.5686536 15.046165,12.6747163 C15.2350867,12.7807769 15.4455484,12.8967799 15.6775568,13.0227277 C15.9095651,13.1486756 16.088542,13.2481055 16.2144899,13.3210219 C16.6785065,13.5530303 16.9303977,13.728693 16.9701701,13.8480103 C16.9900575,13.8944133 17,13.9640155 17,14.0568171 L17,14.0568171 Z" fill="#BFC8D7"></path>
  </g>
</svg>
