<svg width="20" height="21" viewBox="0 0 20 21" xmlns="http://www.w3.org/2000/svg"><title>Pinterest</title><g fill="none" fill-rule="evenodd"><path d="M9.984 20.114C4.469 20.114 0 15.64 0 10.122 0 4.604 4.47.131 9.984.131c5.513 0 9.983 4.473 9.983 9.991s-4.47 9.992-9.983 9.992z" fill="#FFF"/><path d="M9.972 1.067C4.975 1.067.924 5.12.924 10.122a9.057 9.057 0 0 0 5.75 8.432c-.08-.716-.15-1.815.032-2.598.163-.707 1.06-4.5 1.06-4.5s-.27-.543-.27-1.344c0-1.26.728-2.2 1.637-2.2.771 0 1.144.58 1.144 1.276 0 .777-.494 1.938-.75 3.015-.212.902.453 1.636 1.34 1.636 1.609 0 2.845-1.697 2.845-4.147 0-2.168-1.556-3.684-3.779-3.684-2.574 0-4.085 1.933-4.085 3.93 0 .778.299 1.613.673 2.067.074.09.084.168.063.26l-.251 1.026c-.04.166-.132.201-.304.122-1.13-.526-1.835-2.181-1.835-3.508 0-2.856 2.073-5.48 5.978-5.48 3.138 0 5.577 2.238 5.577 5.23 0 3.12-1.966 5.632-4.694 5.632-.918 0-1.78-.477-2.075-1.04l-.563 2.152c-.204.786-.756 1.772-1.124 2.373a8.997 8.997 0 0 0 2.679.405c4.997 0 9.047-4.054 9.047-9.055 0-5.002-4.05-9.055-9.047-9.055" fill="#BD071C"/></g></svg>