<?xml version="1.0" encoding="UTF-8" standalone="no"?>
<svg width="14px" height="14px" viewBox="0 0 14 14" version="1.1" xmlns="http://www.w3.org/2000/svg" xmlns:xlink="http://www.w3.org/1999/xlink">
    <!-- Generator: Sketch 41 (35326) - http://www.bohemiancoding.com/sketch -->
    <title>Search-Gray-Icon</title>
    <desc>Created with Sketch.</desc>
    <defs></defs>
    <g id="Campaigns-List" stroke="none" stroke-width="1" fill="none" fill-rule="evenodd">
        <g transform="translate(-66.000000, -189.000000)" id="Contact-Table">
            <g transform="translate(30.000000, 156.000000)">
                <g id="search" transform="translate(20.000000, 20.000000)">
                    <g id="Search-Gray-Icon" transform="translate(15.000000, 12.000000)">
                        <rect id="bg" fill="#FFFFFF" opacity="0" x="0" y="0" width="16" height="16"></rect>
                        <path d="M11.1052632,7 C11.1052632,4.73272576 9.26727424,2.89473684 7,2.89473684 C4.73272576,2.89473684 2.89473684,4.73272576 2.89473684,7 C2.89473684,9.26727424 4.73272576,11.1052632 7,11.1052632 C9.26727424,11.1052632 11.1052632,9.26727424 11.1052632,7 Z M1,7 C1,3.6862915 3.6862915,1 7,1 C10.3137085,1 13,3.6862915 13,7 C13,10.3137085 10.3137085,13 7,13 C3.6862915,13 1,10.3137085 1,7 Z" id="Oval" fill="#4F5E6F"></path>
                        <rect id="Rectangle" fill="#4F5E6F" transform="translate(12.124417, 12.310498) rotate(-315.000000) translate(-12.124417, -12.310498) " x="9.31672485" y="11.3104979" width="5.61538462" height="2" rx="0.5"></rect>
                    </g>
                </g>
            </g>
        </g>
    </g>
</svg>