<?xml version="1.0" encoding="UTF-8"?>
<!DOCTYPE svg PUBLIC "-//W3C//DTD SVG 1.1//EN" "http://www.w3.org/Graphics/SVG/1.1/DTD/svg11.dtd">
<svg version="1.1" xmlns="http://www.w3.org/2000/svg" xmlns:xlink="http://www.w3.org/1999/xlink" x="0" y="0" width="28" height="28" viewBox="0, 0, 28, 28">
  <g id="Layer_1">
    <g>
      <path d="M14,0 C21.732,0 28,6.268 28,14 C28,21.732 21.732,28 14,28 C6.268,28 0,21.732 -0,14 C-0,6.268 6.268,0 14,0 z M14,2 C7.373,2 2,7.373 2,14 C2,20.627 7.373,26 14,26 C20.627,26 26,20.627 26,14 C26,7.373 20.627,2 14,2 z"/>
      <path d="M11.844,19.181 L12.65,20 L13.456,19.181 L22,10.501 L20.388,9 L11.844,17.68 L13.456,17.68 L8.612,12.76 L7,14.26 z"/>
    </g>
  </g>
</svg>
