<svg width="16" height="16" viewBox="0 0 16 16" xmlns="http://www.w3.org/2000/svg">
  <path fill-rule="evenodd" d="M8 10.465a2.46 2.46 0 0 0 1.783-.723A2.35 2.35 0 0 0 10.523 8c0-.68-.247-1.26-.74-1.742A2.46 2.46 0 0 0 8 5.535a2.46 2.46 0 0 0-1.783.723A2.347 2.347 0 0 0 5.477 8c0 .68.247 1.26.74 1.742A2.46 2.46 0 0 0 8 10.465zm5.349-1.775l1.514 1.15c.157.11.18.263.067.46l-1.447 2.432c-.09.154-.235.198-.437.132l-1.783-.69c-.47.328-.875.558-1.21.69l-.27 1.84c-.045.197-.157.296-.336.296H6.553c-.179 0-.291-.099-.336-.296l-.27-1.84a5.539 5.539 0 0 1-1.21-.69l-1.783.69c-.202.066-.348.022-.437-.132L1.07 10.3c-.112-.197-.09-.35.067-.46l1.514-1.15A5.189 5.189 0 0 1 2.618 8c0-.307.01-.537.033-.69L1.137 6.16c-.157-.11-.18-.263-.067-.46l1.447-2.432c.09-.154.235-.198.437-.132l1.783.69c.47-.328.875-.558 1.21-.69l.27-1.84c.045-.197.157-.296.336-.296h2.894c.179 0 .291.099.336.296l.27 1.84c.425.175.829.405 1.21.69l1.783-.69c.202-.066.348-.022.437.132L14.93 5.7c.112.197.09.35-.067.46l-1.514 1.15c.022.153.033.383.033.69 0 .307-.01.537-.033.69z" />
</svg>