<svg width="20" height="20" viewBox="0 0 20 20" xmlns="http://www.w3.org/2000/svg"><title>Snapchat</title><g fill="none" fill-rule="evenodd"><path d="M0 9.836C0 4.404 4.41 0 9.85 0c5.44 0 9.85 4.404 9.85 9.836s-4.41 9.836-9.85 9.836C4.41 19.672 0 15.268 0 9.836z" fill="#FFE400"/><path d="M9.937 4.918H9.91l-.18.002c-.233 0-.7.033-1.2.253a2.673 2.673 0 0 0-.765.506c-.264.25-.48.558-.64.916-.234.524-.178 1.407-.134 2.117v.001l.015.233a.412.412 0 0 1-.172.032c-.133 0-.29-.042-.468-.125a.419.419 0 0 0-.178-.037.632.632 0 0 0-.314.088.434.434 0 0 0-.222.284c-.014.074-.013.22.15.368.09.082.22.157.39.224.045.017.098.034.154.052.194.061.488.154.565.334.039.091.022.211-.05.356l-.005.012c-.018.042-.185.42-.528.818-.195.226-.41.415-.638.562-.278.18-.58.297-.895.349a.245.245 0 0 0-.205.255c.002.036.01.072.025.107.05.118.167.217.355.305.231.106.576.196 1.026.267.023.043.047.151.063.225.017.08.035.16.06.246.028.094.099.205.282.205.069 0 .149-.015.241-.033.135-.027.32-.063.55-.063.128 0 .26.011.394.034.257.042.479.198.735.38.376.264.8.563 1.45.563.017 0 .035 0 .053-.002l.076.002c.649 0 1.074-.3 1.449-.564.257-.18.478-.337.735-.38a2.42 2.42 0 0 1 .394-.033c.22 0 .394.028.55.059.102.02.18.03.241.03H13.283a.265.265 0 0 0 .269-.202c.025-.084.043-.163.06-.244.015-.07.04-.18.063-.224.45-.07.795-.16 1.026-.267.188-.087.304-.187.355-.303a.313.313 0 0 0 .026-.108.245.245 0 0 0-.206-.255c-1.403-.23-2.034-1.668-2.06-1.729a.175.175 0 0 0-.006-.012c-.072-.145-.088-.265-.05-.356.077-.18.37-.273.565-.335.057-.017.11-.034.154-.051a1.18 1.18 0 0 0 .418-.25.396.396 0 0 0 .128-.287c-.004-.168-.132-.317-.337-.39a.604.604 0 0 0-.229-.043.512.512 0 0 0-.212.043 1.198 1.198 0 0 1-.437.124.396.396 0 0 1-.145-.032l.013-.203.001-.03c.045-.71.101-1.593-.133-2.118a2.859 2.859 0 0 0-.642-.919 2.68 2.68 0 0 0-.768-.506 3.062 3.062 0 0 0-1.2-.251" fill="#FFF"/></g></svg>