<svg width="15px" height="15px" viewBox="0 0 15 15" version="1.1" xmlns="http://www.w3.org/2000/svg" xmlns:xlink="http://www.w3.org/1999/xlink">
  <g stroke="none" stroke-width="1" fill="#BFC8D7" fill-rule="evenodd">
    <path d="M8.01143131,12.7615874 L10.8401988,9.57599783 C11.1226811,9.25788301 11.0206706,9 10.6130389,9 L4.38686466,9 C3.97892535,9 3.87763334,9.2583458 4.15970474,9.57599783 L6.98847221,12.7615874 C7.27095457,13.0797022 7.72935991,13.0792394 8.01143131,12.7615874 Z" transform="translate(7.500000, 11.000000) rotate(-360.000000) translate(-7.500000, -11.000000) "></path>
    <path d="M8.01143131,5.7615874 L10.8401988,2.57599783 C11.1226811,2.25788301 11.0206706,2 10.6130389,2 L4.38686466,2 C3.97892535,2 3.87763334,2.2583458 4.15970474,2.57599783 L6.98847221,5.7615874 C7.27095457,6.07970222 7.72935991,6.07923943 8.01143131,5.7615874 Z" transform="translate(7.500000, 4.000000) rotate(-180.000000) translate(-7.500000, -4.000000) "></path>
  </g>
</svg>
