<svg width="20px" height="20px" viewBox="0 0 23 23" xmlns="http://www.w3.org/2000/svg">
    <path d="M11.5.46C5.403.46.46 5.403.46 11.5c0 6.097 4.943 11.04 11.04 11.04 6.097 0 11.04-4.943 11.04-11.04C22.54 5.403 17.597.46 11.5.46zm4.49 9.044c.005.094.006.188.006.28 0 2.875-2.186 6.188-6.185 6.188a6.136 6.136 0 0 1-3.333-.977c.169.02.343.029.519.029a4.355 4.355 0 0 0 2.7-.93 2.179 2.179 0 0 1-2.031-1.51 2.185 2.185 0 0 0 .981-.038 2.176 2.176 0 0 1-1.745-2.132v-.026c.294.162.63.261.986.273a2.174 2.174 0 0 1-.673-2.905 6.182 6.182 0 0 0 4.482 2.273 2.175 2.175 0 0 1 3.705-1.984c.496-.098.96-.278 1.38-.527a2.185 2.185 0 0 1-.956 1.204c.44-.054.86-.17 1.25-.344-.292.436-.66.82-1.085 1.126z" fill-rule="nonzero" fill="#049FF6"/>
</svg>
