<svg width="20" height="20" viewBox="0 0 20 20" xmlns="http://www.w3.org/2000/svg"><title>Twitter</title><g fill="none" fill-rule="evenodd"><path d="M0 10C0 4.477 4.477 0 10 0s10 4.477 10 10-4.477 10-10 10S0 15.523 0 10z" fill="#55ACEE"/><path d="M9.7 8.128l.021.346-.35-.042C8.1 8.269 6.988 7.719 6.043 6.793l-.461-.459-.12.34c-.251.755-.09 1.553.434 2.09.28.296.217.339-.265.162-.168-.056-.315-.099-.33-.078-.048.05.12.692.253.947.181.353.552.699.958.904l.343.162-.406.007c-.392 0-.406.007-.364.155.14.46.693.947 1.308 1.159l.434.148-.378.226a3.938 3.938 0 0 1-1.874.522c-.315.007-.574.036-.574.057 0 .07.853.466 1.35.621 1.49.46 3.26.262 4.589-.522.944-.558 1.888-1.667 2.329-2.74.238-.572.475-1.617.475-2.119 0-.325.021-.367.413-.755.231-.226.448-.473.49-.544.07-.134.063-.134-.294-.014-.595.212-.678.183-.385-.134.217-.226.476-.636.476-.756 0-.021-.105.014-.224.078-.126.07-.406.176-.615.24l-.378.12-.343-.233a2.847 2.847 0 0 0-.594-.31c-.357-.1-.903-.086-1.225.027-.874.318-1.426 1.137-1.363 2.034z" fill="#FFF"/></g></svg>