<?xml version="1.0" encoding="UTF-8"?>
<!DOCTYPE svg PUBLIC "-//W3C//DTD SVG 1.1//EN" "http://www.w3.org/Graphics/SVG/1.1/DTD/svg11.dtd">
<svg version="1.1" xmlns="http://www.w3.org/2000/svg" xmlns:xlink="http://www.w3.org/1999/xlink" x="0" y="0" width="12" height="12" viewBox="0, 0, 12, 12">
  <g id="Layer_1">
    <path d="M5.803,3.57 L5.829,3.998 L5.396,3.946 C3.823,3.744 2.447,3.064 1.277,1.918 L0.706,1.349 L0.558,1.77 C0.247,2.705 0.447,3.692 1.095,4.357 C1.442,4.723 1.364,4.777 0.767,4.557 C0.559,4.488 0.377,4.435 0.359,4.461 C0.299,4.523 0.507,5.317 0.672,5.633 C0.896,6.07 1.355,6.498 1.858,6.752 L2.282,6.952 L1.78,6.961 C1.294,6.961 1.277,6.97 1.329,7.153 C1.502,7.722 2.187,8.325 2.948,8.587 L3.485,8.771 L3.017,9.05 C2.31,9.456 1.513,9.678 0.698,9.696 C0.308,9.705 -0.013,9.741 -0.013,9.767 C-0.013,9.853 1.043,10.344 1.658,10.535 C3.502,11.105 5.693,10.86 7.338,9.889 C8.506,9.199 9.675,7.826 10.22,6.498 C10.515,5.79 10.808,4.497 10.808,3.876 C10.808,3.473 10.834,3.421 11.32,2.941 C11.605,2.661 11.874,2.356 11.926,2.268 C12.013,2.102 12.004,2.102 11.562,2.25 C10.826,2.513 10.723,2.477 11.086,2.085 C11.354,1.805 11.675,1.297 11.675,1.149 C11.675,1.123 11.545,1.166 11.397,1.245 C11.242,1.332 10.895,1.463 10.636,1.543 L10.168,1.691 L9.744,1.403 C9.515,1.246 9.268,1.117 9.009,1.019 C8.567,0.895 7.891,0.913 7.493,1.052 C6.411,1.446 5.728,2.46 5.806,3.57 z" fill="#BFC8D7"/>
  </g>
</svg>
