<svg width="16px" height="16px" viewBox="0 0 16 16" version="1.1" xmlns="http://www.w3.org/2000/svg" xmlns:xlink="http://www.w3.org/1999/xlink">
  <g stroke="none" stroke-width="1" fill-rule="evenodd">
    <rect id="bg" fill="#FFFFFF" opacity="0" x="0" y="0" width="16" height="16"></rect>
    <path d="M8,2 C13.1428571,2 16,7.76283161 16,7.76283161 C16,7.76283161 13.1428571,13.5256631 8,13.5256632 C2.85714286,13.5256634 0,7.76283161 0,7.76283161 C0,7.76283161 2.85714286,2 8,2 Z M4.57142857,7.76283161 C4.57142857,5.86928389 6.10645229,4.33426018 8,4.33426018 C9.89354771,4.33426018 11.4285714,5.86928389 11.4285714,7.76283161 C11.4285714,9.65637932 9.89354771,11.191403 8,11.191403 C6.10645229,11.191403 4.57142857,9.65637932 4.57142857,7.76283161 Z"></path>
    <rect x="6.5" y="6.30000019" width="3" height="3" rx="1.5"></rect>
  </g>
</svg>
