<?xml version="1.0" encoding="UTF-8" standalone="no"?>
<svg width="19px" height="19px" viewBox="0 0 19 19" version="1.1" xmlns="http://www.w3.org/2000/svg" xmlns:xlink="http://www.w3.org/1999/xlink">
    <!-- Generator: Sketch 40.3 (33839) - http://www.bohemiancoding.com/sketch -->
    <title>website-icon</title>
    <desc>Created with Sketch.</desc>
    <defs></defs>
    <g id="Modals" stroke="none" stroke-width="1" fill="none" fill-rule="evenodd">
        <g id="New-Campaign-Modal" transform="translate(-572.000000, -508.000000)">
            <g transform="translate(383.000000, 90.000000)" id="website-icon">
                <g transform="translate(187.000000, 416.000000)">
                    <rect id="container" x="0" y="0" width="23" height="23"></rect>
                    <path d="M15.6482143,6.16071429 C15.8125,6.51666754 15.8535714,6.72202469 15.7714286,6.77678571 C15.7166675,6.83154674 15.6276799,6.84523897 15.5044656,6.81785714 C15.3812487,6.79047531 15.292261,6.70833509 15.2375,6.57142857 C15.2101182,6.48928571 15.1964286,6.40714286 15.1964286,6.325 L15.1553571,6.20178571 L15.0321429,6.20178571 C14.8678571,6.25654674 14.7857143,6.20178571 14.7857143,6.0375 C14.8130961,5.98273897 14.8815467,5.92797531 14.9910714,5.87321429 C14.9910714,5.84583246 14.9773818,5.81845326 14.95,5.79107143 C14.9226182,5.62678571 14.9636896,5.55833246 15.0732143,5.58571429 C15.2922637,5.64047531 15.4839286,5.83214023 15.6482143,6.16071429 L15.6482143,6.16071429 Z M11.5,2.3 C14.0464417,2.3 16.216359,3.19671611 18.0098201,4.99017989 C19.8032839,6.78364103 20.7,8.95355829 20.7,11.5 C20.7,14.0464417 19.8032839,16.216359 18.0098201,18.0098201 C16.216359,19.8032828 14.0464417,20.7 11.5,20.7 C8.95355829,20.7 6.78364103,19.8032828 4.99017989,18.0098201 C3.19671717,16.216359 2.3,14.0464417 2.3,11.5 C2.3,8.95355829 3.19671717,6.78364103 4.99017989,4.99017989 C6.78364103,3.19671611 8.95355829,2.3 11.5,2.3 L11.5,2.3 Z M8.09107143,18.6053571 L8.41964286,18.7696429 C8.58392857,18.8244049 8.72083246,18.8654761 8.83035714,18.8928571 C9.35059874,19.0845247 9.93928309,19.221428 10.5964286,19.3035714 C11.8285767,19.4404769 12.9648766,19.330954 14.0053571,18.975 C14.7446455,18.7285701 15.3333325,18.4547634 15.7714286,18.1535714 C15.8535714,18.0988093 15.9357143,17.9345247 16.0178571,17.6607143 C16.1,17.3869039 16.154761,17.2226182 16.1821429,17.1678571 C16.2642857,17.0035714 16.3122019,16.695537 16.3258942,16.2437513 C16.3395838,15.791963 16.4559506,15.4565494 16.675,15.2375 C16.8119065,15.0732143 16.8940467,14.9226208 16.9214286,14.7857143 C16.9488104,14.6488078 16.9419656,14.4913695 16.9008942,14.3133915 C16.8598201,14.1354162 16.8392857,13.9779779 16.8392857,13.8410714 C16.8392857,13.7589286 16.8803571,13.5809533 16.9625,13.3071429 C17.0446429,13.0333325 17.0583325,12.8142857 17.0035714,12.65 C17.0035714,12.595239 16.9488104,12.5883915 16.8392857,12.6294656 C16.729761,12.670537 16.6613104,12.6636896 16.6339286,12.6089286 C16.5791675,12.5267857 16.4764877,12.4788695 16.3258942,12.4651799 C16.1752981,12.4514877 16.0110123,12.4583325 15.833037,12.4857143 C15.6550591,12.5130961 15.5386896,12.5267857 15.4839286,12.5267857 C15.1553545,12.4720247 14.7035741,12.1571455 14.1285714,11.5821429 C14.0464286,11.5 14.0601182,11.144052 14.1696429,10.5142857 C14.1970247,10.4321429 14.2244039,10.2404779 14.2517857,9.93928571 C14.2791675,9.63809349 14.3407734,9.41220194 14.4366085,9.26160846 C14.5324409,9.11101234 14.7035714,9.00833246 14.95,8.95357143 C15.0321429,8.9261896 15.1074409,8.85089417 15.1758942,8.72767726 C15.2443448,8.60446297 15.3059533,8.52916754 15.3607143,8.50178571 C15.4428571,8.47440389 15.5455344,8.44702469 15.6687513,8.41964286 C15.7919656,8.39226103 15.8946429,8.36488183 15.9767857,8.3375 C16.1136922,8.31011817 16.2985097,8.31696297 16.5312487,8.35803703 C16.7639903,8.39910846 16.9351182,8.41964286 17.0446429,8.41964286 C17.2363104,8.41964286 17.5374974,8.57023634 17.9482143,8.87142857 C18.0303571,8.95357143 18.1193448,9.00148766 18.2151799,9.01517989 C18.3110123,9.02886949 18.4205344,9.03571429 18.5437513,9.03571429 C18.6669656,9.03571429 18.7696429,9.04940389 18.8517857,9.07678571 C18.9613104,9.04940389 18.9339286,8.93988183 18.7696429,8.74821429 C18.6875,8.69345326 18.5779779,8.66607143 18.4410714,8.66607143 C18.1946429,8.6113104 17.9208351,8.41279806 17.6196429,8.0705344 C17.3184506,7.72827337 17.0994065,7.51607143 16.9625,7.43392857 C16.7708325,7.32440389 16.620239,7.32440389 16.5107143,7.43392857 L16.5517857,7.92678571 C16.5517857,7.95416754 16.3738104,8.02261817 16.0178571,8.13214286 C15.7714286,8.18690389 15.5386922,8.05000263 15.3196429,7.72142857 C15.1827363,7.475 15.2101182,7.31071429 15.4017857,7.22857143 L15.525,7.22857143 C15.579761,7.2011896 15.6345247,7.1806552 15.6892857,7.16696297 C15.7440467,7.15327337 15.8125,7.13273897 15.8946429,7.10535714 C15.9767857,7.07797531 16.045239,7.05059611 16.1,7.02321429 C16.154761,6.99583246 16.2095247,6.96160846 16.2642857,6.9205344 C16.3190467,6.87946297 16.3601182,6.83154674 16.3875,6.77678571 C16.4148818,6.72202469 16.4148818,6.66726103 16.3875,6.6125 C16.3601182,6.55773897 16.3464286,6.46190651 16.3464286,6.325 C16.3190467,6.16071429 16.2642857,6.06488183 16.1821429,6.0375 C16.0726182,6.01011817 15.9699409,5.95535714 15.8741058,5.87321429 C15.7782734,5.79107143 15.6755961,5.7363104 15.5660714,5.70892857 C15.4291649,5.68154674 15.3607143,5.48988183 15.3607143,5.13392857 C15.3607143,4.94226103 15.4291649,4.84642857 15.5660714,4.84642857 L15.7303571,4.84642857 C15.0458298,4.40833246 14.2654806,4.07976366 13.3892857,3.86071429 C13.279761,4.18928834 13.170239,4.35357143 13.0607143,4.35357143 C12.8690467,4.40833246 12.7458325,4.44940389 12.6910714,4.47678571 C12.6363104,4.53154674 12.5678571,4.6205344 12.4857143,4.74375131 C12.4035714,4.8669656 12.3351182,4.95595326 12.2803571,5.01071429 C12.2255961,5.06547531 12.1639877,5.11339154 12.0955344,5.1544656 C12.0270838,5.19553703 11.9586305,5.1818448 11.8901799,5.11339154 C11.8217266,5.04494091 11.7464286,4.92857143 11.6642857,4.76428571 C11.6095247,4.6 11.6163695,4.39464286 11.6848201,4.14821429 C11.7532734,3.90178571 11.7738104,3.7238104 11.7464286,3.61428571 L11.5,3.61428571 L11.3767857,3.61428571 C11.5684533,3.9976208 11.4589312,4.25773634 11.0482143,4.39464286 C10.9386896,4.39464286 10.8223227,4.36041623 10.6991058,4.29196297 C10.5758915,4.22351234 10.4595247,4.20297531 10.35,4.23035714 C10.295239,4.23035714 10.2199409,4.20982274 10.1241058,4.16875131 C10.0282734,4.12767726 9.95297531,4.12083246 9.89821429,4.14821429 C9.54226103,4.3125 9.35059611,4.47678571 9.32321429,4.64107143 C9.26845326,4.8875 9.30952206,5.03124869 9.44642857,5.07232274 C9.58333509,5.11339417 9.73392857,5.05178571 9.89821429,4.8875 C10.2815494,4.50416491 10.6238078,4.42202206 10.925,4.64107143 C11.0619065,4.75059611 11.1303571,4.94226103 11.1303571,5.21607143 C11.1303571,5.32559611 11.1235123,5.42142857 11.1098201,5.50357143 C11.0961305,5.58571429 11.0619039,5.67470194 11.0071429,5.7705344 C10.9523818,5.86636949 10.870239,5.90059611 10.7607143,5.87321429 C10.7333325,5.87321429 10.6854162,5.85267989 10.616963,5.81160846 C10.5485123,5.7705344 10.5005961,5.7431552 10.4732143,5.7294656 C10.4458325,5.71577337 10.3910714,5.72261817 10.3089286,5.75 C10.2541675,5.80476103 9.85714549,5.92797531 9.11785714,6.11964286 C8.95357143,6.14702469 8.75506171,6.20863051 8.52232274,6.3044656 C8.28958114,6.40029806 8.14583246,6.46190389 8.09107143,6.48928571 C7.7898792,6.5988104 7.62559611,6.76309349 7.59821429,6.98214286 C7.59821429,7.36547794 7.55714286,7.57083246 7.475,7.59821429 C7.42023897,7.62559611 7.35863051,7.56398766 7.29017989,7.41339154 C7.22172663,7.26279806 7.12589417,7.11220194 7.00267726,6.96160846 C6.87946297,6.81101234 6.73571429,6.74940389 6.57142857,6.77678571 C6.29761817,6.80416754 6.0375,6.934224 5.79107143,7.16696297 C5.54464286,7.39970457 5.4625,7.65297531 5.54464286,7.92678571 C5.57202469,7.98154674 5.67470194,8.02946297 5.85267726,8.0705344 C6.0306552,8.11160846 6.14017726,8.15267726 6.18124869,8.19375131 C6.22232274,8.23482274 6.14702469,8.3375 5.95535714,8.50178571 C5.92797531,8.55654674 5.92113051,8.625 5.93482011,8.70714286 C5.94851234,8.78928571 5.96904674,8.9056552 5.99642857,9.05624869 C6.0238104,9.2068448 6.0375,9.29583246 6.0375,9.32321429 C6.06488183,9.51488183 6.17440389,9.66547531 6.36607143,9.775 C6.55773897,9.88452469 6.73571429,9.87083509 6.9,9.73392857 C7.03690651,9.59702206 7.22857143,9.56964286 7.475,9.65178571 C8.5428624,10.2267883 9.15892857,10.5964286 9.32321429,10.7607143 C9.37797531,10.8154753 9.4806552,11.0071402 9.63124869,11.3357143 C9.7818448,11.6642883 9.91190389,11.8559533 10.0214286,11.9107143 C10.0488104,11.9380961 10.2062487,12.0065467 10.4937513,12.1160714 C10.7812513,12.2255961 10.979761,12.3488078 11.0892857,12.4857143 C11.1988104,12.65 11.2056552,12.8211305 11.1098201,12.9991058 C11.0139877,13.1770838 10.8976208,13.3208325 10.7607143,13.4303571 C10.7059533,13.457739 10.5964286,13.6494039 10.4321429,14.0053571 C10.2678571,14.3613104 10.1583325,14.5666675 10.1035714,14.6214286 C10.0488104,14.7035714 9.82976366,14.7994039 9.44642857,14.9089286 C9.41904674,14.9089286 9.37797531,14.9431552 9.32321429,15.0116085 C9.26845326,15.0800591 9.22053703,15.1485123 9.1794656,15.216963 C9.13839154,15.2854162 9.10416754,15.3333325 9.07678571,15.3607143 C9.02202469,15.4154753 8.92619223,15.5386896 8.78928571,15.7303571 C8.6523792,15.9220247 8.51547794,16.0589286 8.37857143,16.1410714 C7.74880514,16.5791675 7.5023792,17.1815441 7.63928571,17.9482143 C7.72142857,18.2767873 7.87202206,18.4958327 8.09107143,18.6053571 L8.09107143,18.6053571 Z M6.40714286,17.4964286 L6.48928571,17.5785714 C6.68095326,17.7428571 6.99583246,17.9619039 7.43392857,18.2357143 C6.74940126,17.551187 6.46190389,16.4833403 6.57142857,15.0321429 L6.69464286,14.0464286 C6.72202469,13.9916675 6.70148766,13.9163695 6.63303703,13.8205344 C6.56458377,13.7247019 6.53035714,13.6494039 6.53035714,13.5946429 C6.53035714,13.4029753 6.47559611,13.279761 6.36607143,13.225 C6.3113104,13.170239 6.25654674,13.1154753 6.20178571,13.0607143 C5.95535714,12.8142857 5.79107143,12.5815494 5.70892857,12.3625 C5.4898792,11.8970221 5.62678309,11.3083377 6.11964286,10.5964286 C6.25654937,10.3773792 6.22916754,10.1172637 6.0375,9.81607143 C5.84583246,9.5148792 5.7363104,9.33690389 5.70892857,9.28214286 C5.70892857,9.2 5.66101234,9.11785714 5.56517989,9.03571429 C5.4693448,8.95357143 5.43511817,8.87142857 5.4625,8.78928571 C5.48988183,8.6523792 5.4351208,8.57023897 5.29821429,8.54285714 C5.21607143,8.48809611 5.14761817,8.44702469 5.09285714,8.41964286 C4.9011896,8.31011817 4.81904753,8.12529806 4.84642857,7.86517989 C4.87380961,7.60505909 4.86011922,7.43392857 4.80535714,7.35178571 C3.92916229,8.8029832 3.55267805,10.3773713 3.67589286,12.075 C3.79910767,13.7726287 4.3946376,15.2648739 5.4625,16.5517857 L5.50357143,16.5928571 L5.50357143,16.6339286 L5.54464286,16.6339286 C5.70892857,16.8529779 5.83214286,17.0035714 5.91428571,17.0857143 C5.96904674,17.1404753 6.0443448,17.2089286 6.14017989,17.2910714 C6.23601234,17.3732143 6.29761817,17.4279753 6.325,17.4553571 L6.40714286,17.4964286 Z" id="icon" fill="#BFC8D7"></path>
                </g>
            </g>
        </g>
    </g>
</svg>