<svg width="20px" height="20px" viewBox="0 0 19 19" xmlns="http://www.w3.org/2000/svg">
    <g fill-rule="evenodd">
        <path d="M-2-2h23v23H-2z" fill="none" />
        <path d="M13.648 4.16c.165.357.206.562.123.617-.054.055-.143.068-.267.04-.123-.027-.212-.109-.266-.246a.775.775 0 0 1-.042-.246l-.04-.123h-.124c-.164.055-.246 0-.246-.165.027-.054.096-.109.205-.164 0-.027-.014-.055-.041-.082-.027-.164.014-.233.123-.205.22.054.41.246.575.575zM9.5.3c2.546 0 4.716.897 6.51 2.69 1.793 1.794 2.69 3.964 2.69 6.51s-.897 4.716-2.69 6.51c-1.794 1.793-3.964 2.69-6.51 2.69s-4.716-.897-6.51-2.69C1.197 14.216.3 12.046.3 9.5s.897-4.716 2.69-6.51C4.784 1.197 6.954.3 9.5.3zM6.091 16.605l.329.165c.164.054.3.095.41.123a7.97 7.97 0 0 0 1.766.41c1.233.137 2.369.028 3.41-.328.739-.246 1.327-.52 1.765-.821.083-.055.165-.22.247-.493a4.65 4.65 0 0 1 .164-.493c.082-.164.13-.472.144-.924.014-.452.13-.787.349-1.006.137-.165.219-.315.246-.452.028-.137.021-.295-.02-.473a2.13 2.13 0 0 1-.062-.472c0-.082.041-.26.123-.534.083-.274.096-.493.042-.657 0-.055-.055-.062-.165-.02-.11.04-.178.034-.205-.021-.055-.082-.158-.13-.308-.144a2.036 2.036 0 0 0-.493.02 2.99 2.99 0 0 1-.35.042c-.328-.055-.78-.37-1.354-.945-.083-.082-.069-.438.04-1.068.028-.082.055-.274.083-.575.027-.3.089-.527.185-.677.095-.151.267-.254.513-.308.082-.028.157-.103.226-.226.068-.124.13-.199.185-.226.082-.028.185-.055.308-.082.123-.028.226-.055.308-.082.137-.028.322-.021.554.02.233.041.404.062.514.062.191 0 .492.15.903.451a.47.47 0 0 0 .267.144c.096.014.206.02.329.02.123 0 .226.014.308.042.11-.028.082-.137-.082-.329a.584.584 0 0 0-.329-.082c-.246-.055-.52-.253-.821-.595-.302-.343-.52-.555-.658-.637-.191-.11-.342-.11-.451 0l.04.493c0 .027-.177.096-.533.205-.247.055-.48-.082-.698-.41-.137-.247-.11-.411.082-.493h.123a.803.803 0 0 1 .164-.062c.055-.014.123-.034.206-.062.082-.027.15-.054.205-.082.055-.027.11-.061.164-.102a.408.408 0 0 0 .123-.144.175.175 0 0 0 0-.165.705.705 0 0 1-.04-.287c-.028-.164-.083-.26-.165-.288a.752.752 0 0 1-.308-.164.751.751 0 0 0-.308-.164c-.137-.027-.205-.22-.205-.575 0-.192.068-.288.205-.288h.164a7.831 7.831 0 0 0-2.34-.985c-.11.328-.22.493-.33.493a2.718 2.718 0 0 0-.369.123 1.844 1.844 0 0 0-.205.267c-.082.123-.15.212-.206.267a.955.955 0 0 1-.184.143c-.069.042-.137.028-.206-.04a1.393 1.393 0 0 1-.226-.35c-.054-.164-.048-.37.02-.616.07-.246.09-.424.062-.534h-.369c.191.384.082.644-.329.78a.723.723 0 0 1-.349-.102.47.47 0 0 0-.349-.062.623.623 0 0 1-.226-.061c-.096-.041-.171-.048-.226-.02-.356.163-.547.328-.575.492-.055.247-.013.39.123.431.137.041.288-.02.452-.184.384-.384.726-.466 1.027-.247.137.11.205.301.205.575 0 .11-.006.205-.02.288a.818.818 0 0 1-.103.267c-.055.095-.137.13-.246.102-.028 0-.076-.02-.144-.061a2.554 2.554 0 0 0-.144-.083c-.027-.013-.082-.006-.164.021-.055.055-.452.178-1.191.37a2.853 2.853 0 0 0-.596.184 9.256 9.256 0 0 0-.43.185c-.302.11-.466.274-.494.493 0 .383-.04.589-.123.616-.055.028-.116-.034-.185-.185a2.074 2.074 0 0 0-.287-.451c-.124-.151-.267-.213-.432-.185-.273.027-.534.157-.78.39s-.328.486-.246.76c.027.055.13.102.308.144.178.04.287.082.328.123.041.04-.034.144-.226.308a.332.332 0 0 0-.02.205l.061.35c.028.15.041.239.041.266.028.192.137.342.33.452.19.11.369.096.533-.041.137-.137.329-.164.575-.082 1.068.575 1.684.944 1.848 1.109.055.054.158.246.308.575.15.328.28.52.39.575.028.027.185.096.473.205.287.11.486.233.595.37.11.164.117.335.02.513a1.38 1.38 0 0 1-.348.431c-.055.028-.165.22-.329.575-.164.356-.274.562-.328.616-.055.083-.274.178-.658.288-.027 0-.068.034-.123.103a1.869 1.869 0 0 0-.144.205.794.794 0 0 1-.102.144c-.055.054-.15.178-.288.37a1.452 1.452 0 0 1-.41.41c-.63.438-.877 1.04-.74 1.807.082.329.233.548.452.657zm-1.684-1.109l.082.083c.192.164.507.383.945.657-.685-.685-.972-1.753-.863-3.204l.124-.986c.027-.054.006-.13-.062-.225-.068-.096-.103-.172-.103-.226 0-.192-.054-.315-.164-.37l-.164-.164c-.247-.247-.41-.48-.493-.698-.22-.466-.082-1.055.41-1.767.138-.219.11-.479-.082-.78a10.65 10.65 0 0 1-.328-.534c0-.082-.048-.164-.144-.246-.096-.082-.13-.165-.102-.247.027-.137-.028-.219-.165-.246a2.01 2.01 0 0 0-.205-.123c-.192-.11-.274-.295-.247-.555.028-.26.014-.431-.04-.513a7.83 7.83 0 0 0-1.13 4.723c.123 1.698.719 3.19 1.787 4.477l.04.04v.042h.042c.164.219.287.37.37.452.054.054.13.123.225.205.096.082.158.137.185.164l.082.041z" />
    </g>
</svg>
