<svg width="20" height="20" viewBox="0 0 20 20" xmlns="http://www.w3.org/2000/svg"><title>Youtube</title><g fill="none" fill-rule="evenodd"><path d="M0 9.836C0 4.404 4.41 0 9.85 0c5.44 0 9.85 4.404 9.85 9.836s-4.41 9.836-9.85 9.836C4.41 19.672 0 15.268 0 9.836z" fill="#CE1312"/><path d="M14.977 7.856s-.103-.739-.417-1.064c-.399-.427-.846-.43-1.051-.454-1.468-.108-3.67-.108-3.67-.108h-.005s-2.203 0-3.67.108c-.206.025-.653.027-1.052.454-.315.325-.417 1.064-.417 1.064s-.105.868-.105 1.735v.814c0 .868.105 1.735.105 1.735s.102.739.417 1.064c.4.427.923.414 1.157.459.84.082 3.567.107 3.567.107s2.205-.003 3.673-.111c.205-.026.652-.028 1.051-.455.314-.325.417-1.064.417-1.064s.105-.867.105-1.735V9.59c0-.867-.105-1.735-.105-1.735z" fill="#FFF"/><path fill="#CE1312" d="M8.753 11.39V8.379l2.834 1.512z"/></g></svg>